<svg id="visual" viewBox="0 0 960 540" width="960" height="540" xmlns="http://www.w3.org/2000/svg" xmlns:xlink="http://www.w3.org/1999/xlink" version="1.1"><rect x="0" y="0" width="960" height="540" fill="#ffffff"></rect><path d="M0 430L22.8 431.3C45.7 432.7 91.3 435.3 137 430.3C182.7 425.3 228.3 412.7 274 397.7C319.7 382.7 365.3 365.3 411.2 367.3C457 369.3 503 390.7 548.8 406.7C594.7 422.7 640.3 433.3 686 423.7C731.7 414 777.3 384 823 373.3C868.7 362.7 914.3 371.3 937.2 375.7L960 380L960 0L937.2 0C914.3 0 868.7 0 823 0C777.3 0 731.7 0 686 0C640.3 0 594.7 0 548.8 0C503 0 457 0 411.2 0C365.3 0 319.7 0 274 0C228.3 0 182.7 0 137 0C91.3 0 45.7 0 22.8 0L0 0Z" fill="#6b69fa"></path><path d="M0 306L22.8 310.8C45.7 315.7 91.3 325.3 137 336.5C182.7 347.7 228.3 360.3 274 362.2C319.7 364 365.3 355 411.2 348.2C457 341.3 503 336.7 548.8 333.7C594.7 330.7 640.3 329.3 686 320.5C731.7 311.7 777.3 295.3 823 284C868.7 272.7 914.3 266.3 937.2 263.2L960 260L960 0L937.2 0C914.3 0 868.7 0 823 0C777.3 0 731.7 0 686 0C640.3 0 594.7 0 548.8 0C503 0 457 0 411.2 0C365.3 0 319.7 0 274 0C228.3 0 182.7 0 137 0C91.3 0 45.7 0 22.8 0L0 0Z" fill="#467bfd"></path><path d="M0 220L22.8 236C45.7 252 91.3 284 137 296.7C182.7 309.3 228.3 302.7 274 304.8C319.7 307 365.3 318 411.2 311.5C457 305 503 281 548.8 269C594.7 257 640.3 257 686 269.7C731.7 282.3 777.3 307.7 823 320C868.7 332.3 914.3 331.7 937.2 331.3L960 331L960 0L937.2 0C914.3 0 868.7 0 823 0C777.3 0 731.7 0 686 0C640.3 0 594.7 0 548.8 0C503 0 457 0 411.2 0C365.3 0 319.7 0 274 0C228.3 0 182.7 0 137 0C91.3 0 45.7 0 22.8 0L0 0Z" fill="#1e8afa"></path><path d="M0 190L22.8 202.7C45.7 215.3 91.3 240.7 137 253.5C182.7 266.3 228.3 266.7 274 255.2C319.7 243.7 365.3 220.3 411.2 204.7C457 189 503 181 548.8 187.8C594.7 194.7 640.3 216.3 686 231.7C731.7 247 777.3 256 823 248.8C868.7 241.7 914.3 218.3 937.2 206.7L960 195L960 0L937.2 0C914.3 0 868.7 0 823 0C777.3 0 731.7 0 686 0C640.3 0 594.7 0 548.8 0C503 0 457 0 411.2 0C365.3 0 319.7 0 274 0C228.3 0 182.7 0 137 0C91.3 0 45.7 0 22.8 0L0 0Z" fill="#0096f3"></path><path d="M0 175L22.8 172.8C45.7 170.7 91.3 166.3 137 165.2C182.7 164 228.3 166 274 166.8C319.7 167.7 365.3 167.3 411.2 162.2C457 157 503 147 548.8 146.3C594.7 145.7 640.3 154.3 686 159.3C731.7 164.3 777.3 165.7 823 172.2C868.7 178.7 914.3 190.3 937.2 196.2L960 202L960 0L937.2 0C914.3 0 868.7 0 823 0C777.3 0 731.7 0 686 0C640.3 0 594.7 0 548.8 0C503 0 457 0 411.2 0C365.3 0 319.7 0 274 0C228.3 0 182.7 0 137 0C91.3 0 45.7 0 22.8 0L0 0Z" fill="#00a0e8"></path><path d="M0 155L22.8 143C45.7 131 91.3 107 137 100.3C182.7 93.7 228.3 104.3 274 108C319.7 111.7 365.3 108.3 411.2 109C457 109.7 503 114.3 548.8 116.5C594.7 118.7 640.3 118.3 686 119.5C731.7 120.7 777.3 123.3 823 121C868.7 118.7 914.3 111.3 937.2 107.7L960 104L960 0L937.2 0C914.3 0 868.7 0 823 0C777.3 0 731.7 0 686 0C640.3 0 594.7 0 548.8 0C503 0 457 0 411.2 0C365.3 0 319.7 0 274 0C228.3 0 182.7 0 137 0C91.3 0 45.7 0 22.8 0L0 0Z" fill="#00a6d8"></path><path d="M0 63L22.8 60.7C45.7 58.3 91.3 53.7 137 52.8C182.7 52 228.3 55 274 57.2C319.7 59.3 365.3 60.7 411.2 65.5C457 70.3 503 78.7 548.8 75.7C594.7 72.7 640.3 58.3 686 60.3C731.7 62.3 777.3 80.7 823 88.7C868.7 96.7 914.3 94.3 937.2 93.2L960 92L960 0L937.2 0C914.3 0 868.7 0 823 0C777.3 0 731.7 0 686 0C640.3 0 594.7 0 548.8 0C503 0 457 0 411.2 0C365.3 0 319.7 0 274 0C228.3 0 182.7 0 137 0C91.3 0 45.7 0 22.8 0L0 0Z" fill="#24abc7"></path></svg>