<svg id="visual" viewBox="0 0 900 600" width="900" height="600" xmlns="http://www.w3.org/2000/svg" xmlns:xlink="http://www.w3.org/1999/xlink" version="1.1"><rect x="0" y="0" width="900" height="600" fill="#ffffff"></rect><path d="M0 284L21.5 258.7C43 233.3 86 182.7 128.8 171.7C171.7 160.7 214.3 189.3 257.2 184C300 178.7 343 139.3 385.8 138.3C428.7 137.3 471.3 174.7 514.2 191.7C557 208.7 600 205.3 642.8 213C685.7 220.7 728.3 239.3 771.2 234.5C814 229.7 857 201.3 878.5 187.2L900 173L900 601L878.5 601C857 601 814 601 771.2 601C728.3 601 685.7 601 642.8 601C600 601 557 601 514.2 601C471.3 601 428.7 601 385.8 601C343 601 300 601 257.2 601C214.3 601 171.7 601 128.8 601C86 601 43 601 21.5 601L0 601Z" fill="#69c3fa"></path><path d="M0 351L21.5 351.7C43 352.3 86 353.7 128.8 355C171.7 356.3 214.3 357.7 257.2 339.8C300 322 343 285 385.8 257.5C428.7 230 471.3 212 514.2 215.8C557 219.7 600 245.3 642.8 269C685.7 292.7 728.3 314.3 771.2 329C814 343.7 857 351.3 878.5 355.2L900 359L900 601L878.5 601C857 601 814 601 771.2 601C728.3 601 685.7 601 642.8 601C600 601 557 601 514.2 601C471.3 601 428.7 601 385.8 601C343 601 300 601 257.2 601C214.3 601 171.7 601 128.8 601C86 601 43 601 21.5 601L0 601Z" fill="#51b0f1"></path><path d="M0 374L21.5 375.2C43 376.3 86 378.7 128.8 362C171.7 345.3 214.3 309.7 257.2 298.3C300 287 343 300 385.8 322.8C428.7 345.7 471.3 378.3 514.2 377.2C557 376 600 341 642.8 328.7C685.7 316.3 728.3 326.7 771.2 332.2C814 337.7 857 338.3 878.5 338.7L900 339L900 601L878.5 601C857 601 814 601 771.2 601C728.3 601 685.7 601 642.8 601C600 601 557 601 514.2 601C471.3 601 428.7 601 385.8 601C343 601 300 601 257.2 601C214.3 601 171.7 601 128.8 601C86 601 43 601 21.5 601L0 601Z" fill="#3a9de8"></path><path d="M0 393L21.5 401.5C43 410 86 427 128.8 422.8C171.7 418.7 214.3 393.3 257.2 388.2C300 383 343 398 385.8 400.8C428.7 403.7 471.3 394.3 514.2 403.7C557 413 600 441 642.8 454.2C685.7 467.3 728.3 465.7 771.2 460.8C814 456 857 448 878.5 444L900 440L900 601L878.5 601C857 601 814 601 771.2 601C728.3 601 685.7 601 642.8 601C600 601 557 601 514.2 601C471.3 601 428.7 601 385.8 601C343 601 300 601 257.2 601C214.3 601 171.7 601 128.8 601C86 601 43 601 21.5 601L0 601Z" fill="#268ade"></path><path d="M0 537L21.5 537.3C43 537.7 86 538.3 128.8 524.2C171.7 510 214.3 481 257.2 477.8C300 474.7 343 497.3 385.8 511C428.7 524.7 471.3 529.3 514.2 528.7C557 528 600 522 642.8 511.2C685.7 500.3 728.3 484.7 771.2 477.5C814 470.3 857 471.7 878.5 472.3L900 473L900 601L878.5 601C857 601 814 601 771.2 601C728.3 601 685.7 601 642.8 601C600 601 557 601 514.2 601C471.3 601 428.7 601 385.8 601C343 601 300 601 257.2 601C214.3 601 171.7 601 128.8 601C86 601 43 601 21.5 601L0 601Z" fill="#1976d2"></path></svg>