<svg id="visual" viewBox="0 0 900 600" width="900" height="600" xmlns="http://www.w3.org/2000/svg" xmlns:xlink="http://www.w3.org/1999/xlink" version="1.1"><rect x="0" y="0" width="900" height="600" fill="#ffffff"></rect><path d="M594 600L601 588.8C608 577.7 622 555.3 618.3 533.2C614.7 511 593.3 489 598 466.8C602.7 444.7 633.3 422.3 647.3 400C661.3 377.7 658.7 355.3 652 333.2C645.3 311 634.7 289 629.5 266.8C624.3 244.7 624.7 222.3 610.2 200C595.7 177.7 566.3 155.3 560.3 133.2C554.3 111 571.7 89 570.3 66.8C569 44.7 549 22.3 539 11.2L529 0L900 0L900 11.2C900 22.3 900 44.7 900 66.8C900 89 900 111 900 133.2C900 155.3 900 177.7 900 200C900 222.3 900 244.7 900 266.8C900 289 900 311 900 333.2C900 355.3 900 377.7 900 400C900 422.3 900 444.7 900 466.8C900 489 900 511 900 533.2C900 555.3 900 577.7 900 588.8L900 600Z" fill="#69d2fa"></path><path d="M625 600L631.2 588.8C637.3 577.7 649.7 555.3 665 533.2C680.3 511 698.7 489 699.2 466.8C699.7 444.7 682.3 422.3 678.8 400C675.3 377.7 685.7 355.3 688 333.2C690.3 311 684.7 289 673.8 266.8C663 244.7 647 222.3 651 200C655 177.7 679 155.3 680.3 133.2C681.7 111 660.3 89 654.7 66.8C649 44.7 659 22.3 664 11.2L669 0L900 0L900 11.2C900 22.3 900 44.7 900 66.8C900 89 900 111 900 133.2C900 155.3 900 177.7 900 200C900 222.3 900 244.7 900 266.8C900 289 900 311 900 333.2C900 355.3 900 377.7 900 400C900 422.3 900 444.7 900 466.8C900 489 900 511 900 533.2C900 555.3 900 577.7 900 588.8L900 600Z" fill="#36b5f3"></path><path d="M710 600L711 588.8C712 577.7 714 555.3 719.3 533.2C724.7 511 733.3 489 741.3 466.8C749.3 444.7 756.7 422.3 744.7 400C732.7 377.7 701.3 355.3 700.2 333.2C699 311 728 289 735.2 266.8C742.3 244.7 727.7 222.3 726 200C724.3 177.7 735.7 155.3 744.3 133.2C753 111 759 89 760.3 66.8C761.7 44.7 758.3 22.3 756.7 11.2L755 0L900 0L900 11.2C900 22.3 900 44.7 900 66.8C900 89 900 111 900 133.2C900 155.3 900 177.7 900 200C900 222.3 900 244.7 900 266.8C900 289 900 311 900 333.2C900 355.3 900 377.7 900 400C900 422.3 900 444.7 900 466.8C900 489 900 511 900 533.2C900 555.3 900 577.7 900 588.8L900 600Z" fill="#0097ea"></path><path d="M803 600L792.3 588.8C781.7 577.7 760.3 555.3 750.7 533.2C741 511 743 489 745.8 466.8C748.7 444.7 752.3 422.3 759.8 400C767.3 377.7 778.7 355.3 786.3 333.2C794 311 798 289 794.3 266.8C790.7 244.7 779.3 222.3 776.3 200C773.3 177.7 778.7 155.3 786.3 133.2C794 111 804 89 806.8 66.8C809.7 44.7 805.3 22.3 803.2 11.2L801 0L900 0L900 11.2C900 22.3 900 44.7 900 66.8C900 89 900 111 900 133.2C900 155.3 900 177.7 900 200C900 222.3 900 244.7 900 266.8C900 289 900 311 900 333.2C900 355.3 900 377.7 900 400C900 422.3 900 444.7 900 466.8C900 489 900 511 900 533.2C900 555.3 900 577.7 900 588.8L900 600Z" fill="#0077dc"></path><path d="M821 600L816.7 588.8C812.3 577.7 803.7 555.3 809.5 533.2C815.3 511 835.7 489 841.5 466.8C847.3 444.7 838.7 422.3 832.2 400C825.7 377.7 821.3 355.3 818 333.2C814.7 311 812.3 289 818.8 266.8C825.3 244.7 840.7 222.3 840.7 200C840.7 177.7 825.3 155.3 819.7 133.2C814 111 818 89 825.8 66.8C833.7 44.7 845.3 22.3 851.2 11.2L857 0L900 0L900 11.2C900 22.3 900 44.7 900 66.8C900 89 900 111 900 133.2C900 155.3 900 177.7 900 200C900 222.3 900 244.7 900 266.8C900 289 900 311 900 333.2C900 355.3 900 377.7 900 400C900 422.3 900 444.7 900 466.8C900 489 900 511 900 533.2C900 555.3 900 577.7 900 588.8L900 600Z" fill="#2455c7"></path></svg>